<svg width="11" height="19" viewBox="0 0 11 19" fill="none" xmlns="http://www.w3.org/2000/svg">
<path d="M10.5121 0.497244C10.3576 0.33962 10.174 0.214567 9.97192 0.129243C9.76982 0.0439192 9.55317 0 9.33438 0C9.11558 0 8.89894 0.0439192 8.69684 0.129243C8.49474 0.214567 8.31116 0.33962 8.15661 0.497244L0.488557 8.30165C0.333687 8.45895 0.210818 8.64579 0.126985 8.85148C0.0431519 9.05717 0 9.27767 0 9.50036C0 9.72305 0.0431519 9.94355 0.126985 10.1492C0.210818 10.3549 0.333687 10.5418 0.488557 10.6991L8.15661 18.5035C8.31127 18.6609 8.49489 18.7858 8.69697 18.871C8.89906 18.9562 9.11565 19 9.33438 19C9.55311 19 9.7697 18.9562 9.97178 18.871C10.1739 18.7858 10.3575 18.6609 10.5121 18.5035C10.6668 18.3461 10.7895 18.1592 10.8732 17.9535C10.9569 17.7478 11 17.5274 11 17.3048C11 17.0821 10.9569 16.8617 10.8732 16.656C10.7895 16.4503 10.6668 16.2635 10.5121 16.106L4.03023 9.49186L10.5121 2.89467C11.1637 2.23156 11.147 1.14336 10.5121 0.497244Z" fill="#545454"/>
</svg>
