<svg width="11" height="19" viewBox="0 0 11 19" fill="none" xmlns="http://www.w3.org/2000/svg">
<path d="M0.488526 0.499874C0.333665 0.657298 0.210805 0.844287 0.126977 1.05014C0.0431491 1.25599 0 1.47666 0 1.69952C0 1.92238 0.0431491 2.14305 0.126977 2.3489C0.210805 2.55475 0.333665 2.74174 0.488526 2.89917L6.97003 9.50148L0.488526 16.1038C0.333868 16.2613 0.211188 16.4484 0.127488 16.6542C0.0437883 16.86 0.00070734 17.0806 0.000707339 17.3034C0.000707337 17.5262 0.0437883 17.7469 0.127488 17.9527C0.211188 18.1585 0.333868 18.3456 0.488526 18.5031C0.643183 18.6606 0.826788 18.7856 1.02886 18.8709C1.23093 18.9561 1.4475 19 1.66622 19C1.88494 19 2.10152 18.9561 2.30359 18.8709C2.50566 18.7856 2.68926 18.6606 2.84392 18.5031L10.5115 10.6926C10.6663 10.5352 10.7892 10.3482 10.873 10.1424C10.9569 9.93651 11 9.71583 11 9.49297C11 9.27011 10.9569 9.04944 10.873 8.84359C10.7892 8.63774 10.6663 8.45075 10.5115 8.29333L2.84392 0.482857C2.20913 -0.163761 1.14002 -0.163761 0.488526 0.499874Z" fill="#545454"/>
</svg>
