<svg width="24" height="23" viewBox="0 0 24 23" fill="none" xmlns="http://www.w3.org/2000/svg">
<path d="M5.3 17.763V17.263H4.8H3.9C2.01595 17.263 0.5 15.7572 0.5 13.914V3.849C0.5 2.0058 2.01595 0.5 3.9 0.5H20.1C21.9841 0.5 23.5 2.0058 23.5 3.849V13.914C23.5 15.7586 21.9842 17.263 20.1 17.263H13.215H13.0504L12.918 17.3607L6.90221 21.8017C6.90207 21.8018 6.90193 21.802 6.90178 21.8021C6.68783 21.9593 6.42079 22.0264 6.15791 21.989C5.89534 21.9517 5.65783 21.8131 5.49617 21.6029C5.36937 21.4352 5.30052 21.2307 5.3 21.0204V17.763Z" fill="white" stroke="#545454"/>
</svg>
