<svg width="24" height="24" viewBox="0 0 24 24" fill="none" xmlns="http://www.w3.org/2000/svg">
<path d="M14.575 8.275L15.725 9.425L4.4 20.75H3.25V19.6L14.575 8.275ZM19.075 0.75C18.7625 0.75 18.4375 0.875 18.2 1.1125L15.9125 3.4L20.6 8.0875L22.8875 5.8C23.0034 5.68436 23.0953 5.547 23.158 5.39578C23.2208 5.24456 23.2531 5.08246 23.2531 4.91875C23.2531 4.75504 23.2208 4.59294 23.158 4.44172C23.0953 4.2905 23.0034 4.15314 22.8875 4.0375L19.9625 1.1125C19.7125 0.8625 19.4 0.75 19.075 0.75ZM14.575 4.7375L0.75 18.5625V23.25H5.4375L19.2625 9.425L14.575 4.7375Z" fill="#545454"/>
</svg>
