<svg width="24" height="24" viewBox="0 0 24 24" fill="none" xmlns="http://www.w3.org/2000/svg">
<path d="M17.6446 18.8565L22.535 23.7487C22.6147 23.8283 22.7093 23.8916 22.8135 23.9347C22.9176 23.9778 23.0292 24 23.1419 24C23.2545 24 23.3661 23.9778 23.4703 23.9347C23.5744 23.8916 23.669 23.8283 23.7487 23.7487C23.8283 23.669 23.8916 23.5744 23.9347 23.4703C23.9778 23.3661 24 23.2545 24 23.1419C24 23.0292 23.9778 22.9176 23.9347 22.8135C23.8916 22.7093 23.8283 22.6147 23.7487 22.535L1.46495 0.251346C1.38526 0.171659 1.29066 0.108449 1.18655 0.0653226C1.08243 0.0221966 0.970842 8.39633e-10 0.858148 0C0.745455 -8.39633e-10 0.633865 0.0221966 0.529749 0.0653226C0.425634 0.108449 0.331032 0.171659 0.251346 0.251346C0.171659 0.331032 0.108449 0.425634 0.0653226 0.529749C0.0221966 0.633865 -8.39633e-10 0.745455 0 0.858148C8.39633e-10 0.970842 0.0221966 1.08243 0.0653226 1.18655C0.108449 1.29066 0.171659 1.38526 0.251346 1.46495L1.51809 2.72998C1.04282 3.13219 0.660898 3.63314 0.398913 4.19797C0.136928 4.76279 0.00116826 5.37792 0.0010827 6.00054V14.5712C0.0010827 15.134 0.111926 15.6912 0.327284 16.2111C0.542642 16.731 0.858297 17.2035 1.25623 17.6014C2.05988 18.405 3.14987 18.8565 4.28641 18.8565H5.14348V22.1854C5.14342 22.5081 5.2363 22.8239 5.41101 23.0952C5.58573 23.3665 5.83489 23.5817 6.12869 23.7152C6.4225 23.8486 6.74852 23.8946 7.06777 23.8476C7.38702 23.8007 7.686 23.6628 7.92894 23.4504L13.1793 18.8565H17.6446ZM23.9989 14.5712C23.9989 16.1413 23.1556 17.5126 21.8957 18.26L5.35089 1.71521H19.7136C20.8501 1.71521 21.9401 2.1667 22.7438 2.97036C23.5474 3.77401 23.9989 4.864 23.9989 6.00054V14.5712Z" fill="white"/>
</svg>
