<svg width="24" height="24" viewBox="0 0 24 24" fill="none" xmlns="http://www.w3.org/2000/svg">
<path d="M1.28195 0.219947C1.21222 0.150215 1.12943 0.0949012 1.03832 0.0571625C0.947213 0.0194239 0.849563 7.34745e-10 0.750947 0C0.652332 -7.34745e-10 0.554681 0.0194239 0.463572 0.0571625C0.372463 0.0949012 0.289679 0.150215 0.219947 0.219947C0.150215 0.289679 0.0949012 0.372463 0.0571625 0.463572C0.0194239 0.554681 -7.34745e-10 0.652332 0 0.750947C7.34745e-10 0.849563 0.0194239 0.947213 0.0571625 1.03832C0.0949012 1.12943 0.150215 1.21222 0.219947 1.28195L1.36445 2.42495C0.93776 2.78369 0.594641 3.23135 0.359115 3.73661C0.123588 4.24186 0.00134634 4.79249 0.000947356 5.34995V15.4149C0.000947356 17.5419 1.74695 19.2639 3.90095 19.2639H4.80095V22.5204C4.80095 22.8399 4.90595 23.1504 5.10095 23.4069C5.59595 24.0624 6.53645 24.1959 7.19945 23.7069L13.2159 19.2639H18.2034L22.7199 23.7819C22.8608 23.9228 23.0518 24.0019 23.2509 24.0019C23.4501 24.0019 23.6411 23.9228 23.7819 23.7819C23.9228 23.6411 24.0019 23.4501 24.0019 23.2509C24.0019 23.0518 23.9228 22.8608 23.7819 22.7199L20.3184 19.2579L2.73695 1.67495L1.28195 0.219947ZM24.0009 15.4149C23.9994 16.1083 23.8103 16.7883 23.4535 17.3827C23.0967 17.9772 22.5856 18.464 21.9744 18.7914L4.68095 1.50095H20.1009C22.2549 1.50095 24.0009 3.22445 24.0009 5.34995V15.4149Z" fill="#4B4B4B"/>
</svg>
