<svg width="25" height="25" viewBox="0 0 25 25" fill="none" xmlns="http://www.w3.org/2000/svg">
<path d="M12.4993 21.25C12.8308 21.25 13.1488 21.3817 13.3832 21.6161C13.6177 21.8505 13.7494 22.1685 13.7494 22.5V23.75C13.7494 24.0815 13.6177 24.3995 13.3832 24.6339C13.1488 24.8683 12.8308 25 12.4993 25C12.1678 25 11.8498 24.8683 11.6154 24.6339C11.3809 24.3995 11.2492 24.0815 11.2492 23.75V22.5C11.2492 22.1685 11.3809 21.8505 11.6154 21.6161C11.8498 21.3817 12.1678 21.25 12.4993 21.25ZM20.4547 18.6875L21.3385 19.5712C21.5663 19.807 21.6923 20.1228 21.6894 20.4505C21.6866 20.7782 21.5551 21.0918 21.3233 21.3235C21.0915 21.5553 20.778 21.6867 20.4502 21.6896C20.1225 21.6924 19.8067 21.5664 19.5709 21.3387L18.6872 20.455C18.4594 20.2192 18.3334 19.9035 18.3363 19.5757C18.3391 19.248 18.4706 18.9345 18.7024 18.7027C18.9342 18.471 19.2477 18.3395 19.5754 18.3367C19.9032 18.3338 20.219 18.4598 20.4547 18.6875ZM4.54387 18.6875C4.76883 18.4633 5.07069 18.3332 5.38814 18.3235C5.7056 18.3138 6.01484 18.4253 6.25306 18.6353C6.49128 18.8454 6.64061 19.1382 6.67073 19.4543C6.70085 19.7705 6.6095 20.0863 6.41522 20.3375L6.31147 20.455L5.42767 21.3387C5.20271 21.5629 4.90084 21.6931 4.58339 21.7028C4.26593 21.7125 3.95669 21.601 3.71847 21.3909C3.48025 21.1809 3.33092 20.8881 3.3008 20.5719C3.27068 20.2558 3.36204 19.94 3.55631 19.6887L3.66007 19.5712L4.54387 18.6875ZM12.4993 5C14.4885 5 16.3963 5.79018 17.8029 7.1967C19.2095 8.60322 19.9997 10.5109 19.9997 12.5C19.9997 14.4891 19.2095 16.3968 17.8029 17.8033C16.3963 19.2098 14.4885 20 12.4993 20C10.5101 20 8.60231 19.2098 7.19571 17.8033C5.78911 16.3968 4.99889 14.4891 4.99889 12.5C4.99889 10.5109 5.78911 8.60322 7.19571 7.1967C8.60231 5.79018 10.5101 5 12.4993 5ZM2.49875 11.25C2.81737 11.2504 3.12383 11.3723 3.35551 11.5911C3.58719 11.8098 3.72661 12.1087 3.74529 12.4267C3.76396 12.7448 3.66047 13.058 3.45598 13.3023C3.25148 13.5466 2.9614 13.7036 2.64501 13.7413L2.49875 13.75H1.24868C0.930067 13.7496 0.623609 13.6277 0.391927 13.4089C0.160244 13.1902 0.0208226 12.8913 0.00215016 12.5733C-0.0165223 12.2552 0.0869632 11.942 0.291462 11.6977C0.495962 11.4534 0.786039 11.2964 1.10243 11.2587L1.24868 11.25H2.49875ZM23.7499 11.25C24.0815 11.25 24.3994 11.3817 24.6339 11.6161C24.8683 11.8505 25 12.1685 25 12.5C25 12.8315 24.8683 13.1495 24.6339 13.3839C24.3994 13.6183 24.0815 13.75 23.7499 13.75H22.4999C22.1683 13.75 21.8504 13.6183 21.6159 13.3839C21.3815 13.1495 21.2498 12.8315 21.2498 12.5C21.2498 12.1685 21.3815 11.8505 21.6159 11.6161C21.8504 11.3817 22.1683 11.25 22.4999 11.25H23.7499ZM3.66007 3.66125C3.87532 3.44603 4.16171 3.31674 4.46551 3.29764C4.76931 3.27854 5.06964 3.37094 5.31016 3.5575L5.42767 3.66125L6.31147 4.545C6.53566 4.76995 6.66583 5.07179 6.67552 5.38923C6.68521 5.70667 6.57371 6.01589 6.36366 6.2541C6.1536 6.49231 5.86075 6.64163 5.54458 6.67175C5.22841 6.70187 4.91263 6.61051 4.66137 6.41625L4.54387 6.3125L3.66007 5.42875C3.42572 5.19434 3.29406 4.87646 3.29406 4.545C3.29406 4.21354 3.42572 3.89566 3.66007 3.66125ZM21.3385 3.66125C21.5729 3.89566 21.7045 4.21354 21.7045 4.545C21.7045 4.87646 21.5729 5.19434 21.3385 5.42875L20.4547 6.3125C20.3394 6.43189 20.2015 6.52712 20.049 6.59263C19.8965 6.65814 19.7324 6.69262 19.5665 6.69406C19.4005 6.69551 19.2359 6.66388 19.0822 6.60103C18.9286 6.53818 18.789 6.44536 18.6717 6.32799C18.5543 6.21063 18.4615 6.07106 18.3986 5.91744C18.3358 5.76382 18.3041 5.59922 18.3056 5.43325C18.307 5.26727 18.3415 5.10325 18.407 4.95074C18.4725 4.79824 18.5678 4.66031 18.6872 4.545L19.5709 3.66125C19.8054 3.42691 20.1233 3.29527 20.4547 3.29527C20.7862 3.29527 21.1041 3.42691 21.3385 3.66125ZM12.4993 0C12.8308 0 13.1488 0.131696 13.3832 0.366116C13.6177 0.600537 13.7494 0.918479 13.7494 1.25V2.5C13.7494 2.83152 13.6177 3.14946 13.3832 3.38388C13.1488 3.6183 12.8308 3.75 12.4993 3.75C12.1678 3.75 11.8498 3.6183 11.6154 3.38388C11.3809 3.14946 11.2492 2.83152 11.2492 2.5V1.25C11.2492 0.918479 11.3809 0.600537 11.6154 0.366116C11.8498 0.131696 12.1678 0 12.4993 0Z" fill="#FFD233"/>
</svg>
