<svg width="40" height="40" viewBox="0 0 40 40" fill="none" xmlns="http://www.w3.org/2000/svg">
<path d="M20 19.25C20 19.25 18.9375 12.5625 18.9375 12.0625C18.9375 11.5625 19.4375 11.25 20 11.25C20.5625 11.25 21.0625 11.625 21.0625 12.125C21.0625 12.625 20 19.25 20 19.25ZM20 20.8125C20 20.8125 21.0625 27.5 21.0625 28C21.0625 28.4375 20.5625 28.875 20 28.875C19.4375 28.875 18.9375 28.5 18.9375 28C18.9375 27.5 20 20.8125 20 20.8125ZM19.1875 20C19.1875 20 12.5 21.0625 12 21.0625C11.5625 21.0625 11.125 20.5625 11.125 20C11.125 19.4375 11.5 18.9375 12 18.9375C12.5 18.9375 19.1875 20 19.1875 20ZM20.8125 20C20.8125 20 27.5 18.9375 28 18.9375C28.4375 18.9375 28.875 19.4375 28.875 20C28.875 20.5625 28.5 21.0625 28 21.0625C27.5 21.0625 20.8125 20 20.8125 20ZM19.4375 19.4375C19.4375 19.4375 13.9375 15.4375 13.625 15.125C13.3125 14.8125 13.375 14.1875 13.8125 13.75C14.25 13.3125 14.8125 13.25 15.1875 13.5625C15.4375 14 19.4375 19.4375 19.4375 19.4375ZM20.5625 20.5625C20.5625 20.5625 26.0625 24.5625 26.375 24.875C26.6875 25.1875 26.625 25.8125 26.1875 26.25C25.75 26.6875 25.1875 26.75 24.8125 26.4375C24.5625 26.0625 20.5625 20.5625 20.5625 20.5625ZM19.4375 20.5625C19.4375 20.5625 15.4375 26.0625 15.125 26.375C14.8125 26.6875 14.1875 26.625 13.75 26.1875C13.3125 25.75 13.25 25.1875 13.5625 24.8125C13.9375 24.5625 19.4375 20.5625 19.4375 20.5625ZM20.5625 19.4375C20.5625 19.4375 24.5625 13.9375 24.875 13.625C25.1875 13.3125 25.8125 13.375 26.25 13.8125C26.6875 14.25 26.75 14.8125 26.4375 15.1875C26.0625 15.5 20.5625 19.4375 20.5625 19.4375Z" fill="#6ADBC6"/>
<path d="M19.5006 18.6876C19.5006 18.6876 14.0006 7.87509 13.6881 7.12509C13.3756 6.37509 13.5631 5.56259 14.1256 5.31259C14.6881 5.06259 15.3756 5.56259 15.6881 6.31259C16.0006 7.06259 19.5006 18.6876 19.5006 18.6876ZM20.5006 21.3126C20.5006 21.3126 26.0006 32.1251 26.3131 32.8751C26.6256 33.6251 26.4381 34.4376 25.8756 34.6876C25.3131 34.9376 24.6256 34.4376 24.3131 33.6876C24.0006 32.9376 20.5006 21.3126 20.5006 21.3126ZM18.6881 20.5626C18.6881 20.5626 7.87558 26.0626 7.12558 26.3751C6.37558 26.6876 5.56308 26.5001 5.31308 25.9376C5.06308 25.3751 5.56308 24.6876 6.31308 24.3751C7.12558 24.0626 18.6881 20.5626 18.6881 20.5626ZM21.3131 19.5001C21.3131 19.5001 32.1256 14.0001 32.8756 13.6876C33.6256 13.3751 34.4381 13.5626 34.6881 14.1251C34.9381 14.6876 34.4381 15.3751 33.6881 15.6876L21.3131 19.5001ZM18.6881 19.4376C18.6881 19.4376 7.18808 15.6876 6.37558 15.3751C5.56308 15.0626 5.18808 14.3751 5.43808 13.8126C5.68808 13.2501 6.50058 13.1251 7.25058 13.4376C8.00058 13.7501 18.6881 19.4376 18.6881 19.4376ZM21.3131 20.5626C21.3131 20.5626 32.8131 24.3126 33.6256 24.6251C34.3756 24.9376 34.8131 25.6876 34.6256 26.1876C34.3756 26.7501 33.5631 26.8751 32.8131 26.5626C32.0006 26.2501 21.3131 20.5626 21.3131 20.5626ZM19.4381 21.3126C19.4381 21.3126 15.6881 32.8126 15.3756 33.6251C15.0631 34.3751 14.3131 34.8126 13.8131 34.6251C13.2506 34.3751 13.1256 33.5626 13.4381 32.8126C13.7506 32.0001 19.4381 21.3126 19.4381 21.3126ZM20.5631 18.7501C20.5631 18.7501 24.3131 7.25009 24.6256 6.43759C24.9381 5.62509 25.6256 5.18759 26.1881 5.43759C26.7506 5.68759 26.8756 6.50009 26.5631 7.25009C26.2506 8.06259 20.5631 18.7501 20.5631 18.7501Z" fill="#FFCE31"/>
<path d="M20 29.4375C20 29.4375 21.0625 37.25 21.0625 37.8125C21.0625 38.375 20.5625 38.8125 20 38.8125C19.4375 38.8125 18.9375 38.375 18.9375 37.8125C18.9375 37.25 20 29.4375 20 29.4375ZM20 10C20 10 18.9375 2.6875 18.9375 2.1875C18.9375 1.6875 19.375 1.25 20 1.25C20.625 1.25 21.0625 1.6875 21.0625 2.1875C21.0625 2.6875 20 10 20 10ZM26.6875 26.6875C26.6875 26.6875 32.9375 31.4375 33.375 31.8125C33.75 32.1875 33.75 32.875 33.3125 33.25C32.875 33.625 32.25 33.6875 31.875 33.3125C31.4375 32.9375 26.6875 26.6875 26.6875 26.6875ZM12.9375 12.9375C12.9375 12.9375 7 8.5625 6.6875 8.1875C6.3125 7.8125 6.375 7.1875 6.8125 6.75C7.25 6.3125 7.875 6.3125 8.25 6.625C8.5 7 12.9375 12.9375 12.9375 12.9375ZM26.6875 13.3125C26.6875 13.3125 31.4375 7.0625 31.8125 6.625C32.1875 6.25 32.875 6.25 33.25 6.6875C33.6875 7.125 33.6875 7.75 33.3125 8.125C32.9375 8.5625 26.6875 13.3125 26.6875 13.3125ZM12.9375 27.0625C12.9375 27.0625 8.5625 33 8.1875 33.3125C7.8125 33.6875 7.1875 33.625 6.75 33.1875C6.3125 32.75 6.25 32.1875 6.625 31.875C7 31.5 12.9375 27.0625 12.9375 27.0625ZM29.4375 20C29.4375 20 37.25 18.9375 37.8125 18.9375C38.375 18.9375 38.75 19.375 38.75 20C38.75 20.5625 38.3125 21.0625 37.75 21.0625C37.25 21.0625 29.4375 20 29.4375 20ZM10 20C10 20 2.6875 21.0625 2.1875 21.0625C1.6875 21.0625 1.25 20.625 1.25 20C1.25 19.375 1.6875 18.9375 2.1875 18.9375C2.6875 18.9375 10 20 10 20Z" fill="#42ADE2"/>
<path d="M12.9375 4.3125C13.5588 4.3125 14.0625 3.80882 14.0625 3.1875C14.0625 2.56618 13.5588 2.0625 12.9375 2.0625C12.3162 2.0625 11.8125 2.56618 11.8125 3.1875C11.8125 3.80882 12.3162 4.3125 12.9375 4.3125Z" fill="#42ADE2"/>
<path d="M27.1875 4.3125C27.8088 4.3125 28.3125 3.80882 28.3125 3.1875C28.3125 2.56618 27.8088 2.0625 27.1875 2.0625C26.5662 2.0625 26.0625 2.56618 26.0625 3.1875C26.0625 3.80882 26.5662 4.3125 27.1875 4.3125Z" fill="#42ADE2"/>
<path d="M12.625 38C13.2463 38 13.75 37.4963 13.75 36.875C13.75 36.2537 13.2463 35.75 12.625 35.75C12.0037 35.75 11.5 36.2537 11.5 36.875C11.5 37.4963 12.0037 38 12.625 38Z" fill="#42ADE2"/>
<path d="M26.875 38C27.4963 38 28 37.4963 28 36.875C28 36.2537 27.4963 35.75 26.875 35.75C26.2537 35.75 25.75 36.2537 25.75 36.875C25.75 37.4963 26.2537 38 26.875 38Z" fill="#42ADE2"/>
<path d="M3.0625 28.125C3.68382 28.125 4.1875 27.6213 4.1875 27C4.1875 26.3787 3.68382 25.875 3.0625 25.875C2.44118 25.875 1.9375 26.3787 1.9375 27C1.9375 27.6213 2.44118 28.125 3.0625 28.125Z" fill="#42ADE2"/>
<path d="M3.0625 13.875C3.68382 13.875 4.1875 13.3713 4.1875 12.75C4.1875 12.1287 3.68382 11.625 3.0625 11.625C2.44118 11.625 1.9375 12.1287 1.9375 12.75C1.9375 13.3713 2.44118 13.875 3.0625 13.875Z" fill="#42ADE2"/>
<path d="M36.75 28.4375C37.3713 28.4375 37.875 27.9338 37.875 27.3125C37.875 26.6912 37.3713 26.1875 36.75 26.1875C36.1287 26.1875 35.625 26.6912 35.625 27.3125C35.625 27.9338 36.1287 28.4375 36.75 28.4375Z" fill="#42ADE2"/>
<path d="M36.75 14.1875C37.3713 14.1875 37.875 13.6838 37.875 13.0625C37.875 12.4412 37.3713 11.9375 36.75 11.9375C36.1287 11.9375 35.625 12.4412 35.625 13.0625C35.625 13.6838 36.1287 14.1875 36.75 14.1875Z" fill="#42ADE2"/>
</svg>
