<svg width="15" height="15" viewBox="0 0 15 15" fill="none" xmlns="http://www.w3.org/2000/svg">
<path d="M10.9159 9.66665H10.2576L10.0242 9.44165C10.545 8.83662 10.9257 8.12396 11.1389 7.35466C11.3521 6.58536 11.3926 5.77844 11.2576 4.99165C10.8659 2.67498 8.93258 0.824979 6.59925 0.541646C5.77893 0.437867 4.94574 0.523122 4.16343 0.790886C3.38113 1.05865 2.67045 1.50183 2.08577 2.08651C1.5011 2.67118 1.05792 3.38186 0.790154 4.16417C0.52239 4.94647 0.437135 5.77966 0.540913 6.59998C0.824247 8.93331 2.67425 10.8666 4.99091 11.2583C5.77771 11.3934 6.58462 11.3528 7.35392 11.1396C8.12322 10.9264 8.83589 10.5458 9.44091 10.025L9.66591 10.2583V10.9166L13.2076 14.4583C13.5492 14.8 14.1076 14.8 14.4492 14.4583C14.7909 14.1166 14.7909 13.5583 14.4492 13.2166L10.9159 9.66665ZM5.91591 9.66665C3.84091 9.66665 2.16591 7.99165 2.16591 5.91665C2.16591 3.84165 3.84091 2.16665 5.91591 2.16665C7.99091 2.16665 9.66591 3.84165 9.66591 5.91665C9.66591 7.99165 7.99091 9.66665 5.91591 9.66665Z" fill="#D9D9D9"/>
</svg>
