<svg width="17" height="17" viewBox="0 0 17 17" fill="none" xmlns="http://www.w3.org/2000/svg">
<path d="M15.7393 8.66661L7.62821 0.555501C7.52596 0.451175 7.40415 0.368035 7.26973 0.310838C7.13532 0.253641 6.99095 0.22351 6.84488 0.222168H1.33377C1.03908 0.222168 0.756467 0.339231 0.548093 0.547605C0.339719 0.755979 0.222656 1.03859 0.222656 1.33328V6.84439C0.223897 7.1386 0.341774 7.42031 0.550434 7.62772L8.66154 15.7388C8.76474 15.8421 8.88728 15.9241 9.02217 15.98C9.15705 16.0359 9.30164 16.0647 9.44766 16.0647C9.59367 16.0647 9.73826 16.0359 9.87315 15.98C10.008 15.9241 10.1306 15.8421 10.2338 15.7388L15.7338 10.2388C15.8374 10.136 15.9198 10.0138 15.9762 9.87907C16.0326 9.74438 16.0619 9.59989 16.0624 9.45387C16.0629 9.30786 16.0347 9.16317 15.9792 9.02809C15.9238 8.893 15.8423 8.77017 15.7393 8.66661ZM3.36154 4.28328C3.17915 4.28328 3.00084 4.22919 2.84919 4.12786C2.69753 4.02652 2.57932 3.88249 2.50952 3.71398C2.43972 3.54546 2.42146 3.36003 2.45704 3.18114C2.49263 3.00225 2.58046 2.83792 2.70944 2.70895C2.83841 2.57997 3.00273 2.49214 3.18163 2.45655C3.36052 2.42097 3.54595 2.43923 3.71446 2.50903C3.88298 2.57884 4.02701 2.69704 4.12834 2.8487C4.22968 3.00036 4.28377 3.17866 4.28377 3.36106C4.28377 3.60564 4.1866 3.84022 4.01365 4.01317C3.8407 4.18612 3.60613 4.28328 3.36154 4.28328Z" fill="#42ADE2"/>
</svg>
