<svg width="80" height="20" viewBox="0 0 80 20" fill="none" xmlns="http://www.w3.org/2000/svg">
<path d="M16.8 0.739999C17.86 0.739999 18.8 1.42 18.8 2.72V19.52H14.8V17.42H11.38C10.38 17.42 9.72 16.82 9.72 15.88C9.72 14.96 10.36 14.3 11.38 14.3H14.8V2.72C14.8 1.42 15.74 0.739999 16.8 0.739999ZM13.14 8.86H3.84C2 8.86 1.22 8.44 1.22 6.78V3.54C1.22 1.88 2 1.42 3.84 1.42H10.68C12.36 1.42 13.14 1.88 13.14 3.7V8.86ZM5.08 4.62V5.62C5.08 5.84 5.18 5.98 5.44 5.98H9.36V4.62C9.36 4.4 9.26 4.28 9.02 4.28H5.42C5.18 4.28 5.08 4.42 5.08 4.62ZM12.42 13.26H8.76V14.86C8.76 17.86 6.42 19.68 3.9 19.68C2.7 19.68 1.88 19.04 1.88 18.12C1.88 17.26 2.36 16.78 3.08 16.6C4 16.38 4.78 15.88 4.78 14.76V13.26H2.32C1.14 13.26 0.64 12.48 0.64 11.64C0.64 10.82 1.12 9.98 2.32 9.98H12.42C13.62 9.98 14.1 10.82 14.1 11.64C14.1 12.48 13.6 13.26 12.42 13.26Z" fill="#6ADBC6"/>
<path d="M28.72 2.86H31.54C32.52 2.86 33.04 3.58 33.04 4.42C33.04 5.24 32.52 5.98 31.6 6C31.8 6.5 31.92 7.06 31.92 7.7V14.04C31.92 17.52 29.76 19.14 26.7 19.14C23.66 19.14 21.48 17.52 21.48 14.04V7.7C21.48 7.06 21.6 6.5 21.8 6C20.9 5.96 20.38 5.24 20.38 4.42C20.38 3.58 20.88 2.86 21.86 2.86H24.68V2.66C24.68 1.42 25.44 0.679999 26.7 0.679999C27.96 0.679999 28.72 1.42 28.72 2.66V2.86ZM38.2 7.74H38.92C40.14 7.74 40.5 8.68 40.5 9.48C40.5 10.3 40.12 11.22 38.92 11.22H38.2V19.52H34.2V2.72C34.2 1.42 35.14 0.739999 36.2 0.739999C37.26 0.739999 38.2 1.42 38.2 2.72V7.74ZM28.22 14.18V7.48C28.22 6.44 27.66 5.82 26.7 5.82C25.74 5.82 25.18 6.44 25.18 7.48V14.18C25.18 15.2 25.74 15.92 26.7 15.92C27.66 15.92 28.22 15.2 28.22 14.18ZM58.2 7.74H58.92C60.14 7.74 60.5 8.68 60.5 9.48C60.5 10.3 60.12 11.22 58.92 11.22H58.2V19.52H54.2V2.72C54.2 1.42 55.14 0.739999 56.2 0.739999C57.26 0.739999 58.2 1.42 58.2 2.72V7.74ZM45.84 15.14H51.62C52.78 15.14 53.12 16.04 53.12 16.8C53.12 17.58 52.76 18.52 51.62 18.52H44.3C41.96 18.52 41.28 17.68 41.28 15.44V3.48C41.28 2.14 42.22 1.54 43.3 1.54C44.4 1.54 45.26 2.16 45.26 3.48V14.58C45.26 15.04 45.38 15.14 45.84 15.14Z" fill="#FFCE31"/>
<path d="M72.04 9.04H77.78C78.88 9.04 79.36 9.72 79.36 10.54C79.36 11.38 78.86 12.02 77.78 12.02H62.22C61.14 12.02 60.64 11.38 60.64 10.54C60.64 9.72 61.12 9.04 62.22 9.04H67.96V7.9H63.8C61.88 7.9 61.48 7.14 61.48 5.64V2.48C61.48 1.18 62.48 0.699999 63.54 0.699999C64.36 0.699999 65.22 1.08 65.48 1.92H74.48C74.72 1.04 75.54 0.699999 76.44 0.699999C77.46 0.699999 78.48 1.2 78.48 2.48V7.9H72.04V9.04ZM65.58 4.3V4.82C65.58 5.22 65.72 5.42 66.2 5.42H74.4V4.3H65.58ZM64.06 13.02H75.92C78.1 13.02 78.54 13.7 78.54 15.66V19.52H64.06C61.88 19.52 61.44 18.82 61.44 16.86V15.66C61.44 13.7 61.88 13.02 64.06 13.02ZM65.92 16.88H74.56V16.08C74.56 15.84 74.46 15.66 74.06 15.66H65.92C65.52 15.66 65.44 15.84 65.44 16.08V16.44C65.44 16.72 65.52 16.88 65.92 16.88Z" fill="#42ADE2"/>
</svg>
